<svg viewBox="0 0 512 512" version="1.1" xmlns="http://www.w3.org/2000/svg" desc="Created with imagetracer.js version 1.2.6" ><path fill="rgb(33,150,242)" stroke="rgb(33,150,242)" stroke-width="0" opacity="0.7529411764705882" d="M 46.5 0 L 51 0.5 L 46.5 1 L 46.5 0 Z " /><path fill="rgb(33,150,242)" stroke="rgb(33,150,242)" stroke-width="0" opacity="0.7529411764705882" d="M 230.5 2 L 232.5 5 L 230.5 2 Z " /><path fill="rgb(33,150,242)" stroke="rgb(33,150,242)" stroke-width="0" opacity="0.7529411764705882" d="M 20.5 11 L 19.5 13 L 20.5 11 Z " /><path fill="rgb(33,150,242)" stroke="rgb(33,150,242)" stroke-width="0" opacity="0.7529411764705882" d="M 12.5 19 L 11.5 21 L 12.5 19 Z " /><path fill="rgb(33,150,242)" stroke="rgb(33,150,242)" stroke-width="0" opacity="0.7529411764705882" d="M 9.5 23 L 8.5 25 L 9.5 23 Z " /><path fill="rgb(33,150,242)" stroke="rgb(33,150,242)" stroke-width="0" opacity="0.7529411764705882" d="M 0.5 46 L 1 50.5 L 0 50.5 L 0.5 46 Z " /><path fill="rgb(33,150,242)" stroke="rgb(33,150,242)" stroke-width="0" opacity="0.7529411764705882" d="M 0.5 376 L 1 379.5 L 0 379.5 L 0.5 376 Z " /><path fill="rgb(33,150,242)" stroke="rgb(33,150,242)" stroke-width="0" opacity="0.7529411764705882" d="M 7.5 400 L 8.5 402 L 7.5 400 Z " /><path fill="rgb(33,150,242)" stroke="rgb(33,150,242)" stroke-width="0" opacity="0.7529411764705882" d="M 9.5 403 L 10.5 405 L 9.5 403 Z " /><path fill="rgb(33,150,242)" stroke="rgb(33,150,242)" stroke-width="0" opacity="0.7529411764705882" d="M 12.5 407 L 19.5 415 L 12.5 407 Z " /><path fill="rgb(33,150,242)" stroke="rgb(33,150,242)" stroke-width="0" opacity="0.7529411764705882" d="M 22.5 416 L 23.5 418 L 22.5 416 Z " /><path fill="rgb(33,150,242)" stroke="rgb(33,150,242)" stroke-width="0" opacity="0.7529411764705882" d="M 42.5 425 L 45 425.5 L 42.5 426 L 42.5 425 Z " /><path fill="rgb(33,150,242)" stroke="rgb(33,150,242)" stroke-width="0" opacity="0.7529411764705882" d="M 50.5 426 L 249 426.5 L 50.5 427 L 50.5 426 Z " /><path fill="rgb(33,150,243)" stroke="rgb(33,150,243)" stroke-width="0" opacity="1" d="M 51.5 0 L 224.5 0 L 228.5 1 L 233 5.5 L 364 389.5 L 373 412.5 L 373 419.5 L 368.5 425 L 366.5 426 L 45.5 426 Q 22.3 421.7 11 405.5 L 4 393.5 L 0 375.5 L 0 51.5 L 1 50.5 L 1 42.5 L 4 33.5 Q 9.2 21.2 18.5 13 L 33.5 4 L 42.5 1 L 50.5 1 L 51.5 0 Z M 148 128 L 141 131 L 138 137 L 85 286 L 85 290 L 88 296 L 96 299 L 103 297 L 108 289 L 126 238 L 127 235 L 172 235 L 193 294 L 200 299 Q 207 300 210 297 L 214 290 L 209 272 L 159 134 Q 156 128 148 128 Z " /><path fill="rgb(33,150,243)" stroke="rgb(33,150,243)" stroke-width="0" opacity="1" d="M 149.5 172 L 164 213 L 135.5 213 L 135 210.5 L 149.5 172 Z " /><path fill="rgb(0,0,0)" stroke="rgb(0,0,0)" stroke-width="0" opacity="0" d="M 0 0 L 43 0.5 L 28.5 5 Q 18.1 10.7 11 19.5 Q 3 28.5 0.5 43 L 0 0 Z " /><path fill="rgb(0,0,0)" stroke="rgb(0,0,0)" stroke-width="0" opacity="0" d="M 229.5 0 L 512 0 L 512 127.5 L 511 127.5 Q 507 107.5 493.5 97 Q 483.1 87.9 466.5 85 L 261 85 L 236 9.5 L 230.5 1 L 229.5 0 Z " /><path fill="rgb(0,0,0)" stroke="rgb(0,0,0)" stroke-width="0" opacity="0" d="M 0.5 384 Q 4.9 404.1 18.5 415 Q 28.9 424.1 45.5 427 L 247.5 427 L 249 428.5 L 276 502.5 L 281.5 511 L 283 511.5 L 0 512 L 0.5 384 Z " /><path fill="rgb(0,0,0)" stroke="rgb(0,0,0)" stroke-width="0" opacity="0" d="M 511.5 469 L 512 512 L 469 511.5 L 483.5 507 Q 493.9 501.4 501 492.5 Q 509.1 483.6 511.5 469 Z " /><path fill="rgb(34,151,241)" stroke="rgb(34,151,241)" stroke-width="0" opacity="0.2235294117647059" d="M 43.5 0 L 46 0.5 L 43.5 1 L 43.5 0 Z " /><path fill="rgb(34,151,241)" stroke="rgb(34,151,241)" stroke-width="0" opacity="0.2235294117647059" d="M 227.5 0 L 233 3.5 L 230.5 2 Q 226.8 1.7 227.5 0 Z " /><path fill="rgb(34,151,241)" stroke="rgb(34,151,241)" stroke-width="0" opacity="0.2235294117647059" d="M 30.5 4 L 32 4.5 L 27.5 7 L 28.5 5 L 30.5 4 Z " /><path fill="rgb(34,151,241)" stroke="rgb(34,151,241)" stroke-width="0" opacity="0.2235294117647059" d="M 25.5 7 L 24.5 9 L 21.5 11 L 23.5 8 L 25.5 7 Z " /><path fill="rgb(34,151,241)" stroke="rgb(34,151,241)" stroke-width="0" opacity="0.2235294117647059" d="M 19.5 11 L 11.5 20 L 19.5 11 Z " /><path fill="rgb(34,151,241)" stroke="rgb(34,151,241)" stroke-width="0" opacity="0.2235294117647059" d="M 10.5 21 L 8.5 24 L 10.5 21 Z " /><path fill="rgb(34,151,241)" stroke="rgb(34,151,241)" stroke-width="0" opacity="0.2235294117647059" d="M 6.5 27 L 6 28.5 L 5.5 30 L 5 28.5 L 6.5 27 Z " /><path fill="rgb(34,151,241)" stroke="rgb(34,151,241)" stroke-width="0" opacity="0.2235294117647059" d="M 0.5 43 L 1 45.5 L 0 45.5 L 0.5 43 Z " /><path fill="rgb(34,151,241)" stroke="rgb(34,151,241)" stroke-width="0" opacity="0.2235294117647059" d="M 0.5 380 L 1 383.5 L 0 383.5 L 0.5 380 Z " /><path fill="rgb(34,151,241)" stroke="rgb(34,151,241)" stroke-width="0" opacity="0.2235294117647059" d="M 7.5 401 L 8.5 403 L 7.5 401 Z " /><path fill="rgb(34,151,241)" stroke="rgb(34,151,241)" stroke-width="0" opacity="0.2235294117647059" d="M 9.5 404 L 11.5 407 L 9.5 404 Z " /><path fill="rgb(34,151,241)" stroke="rgb(34,151,241)" stroke-width="0" opacity="0.2235294117647059" d="M 12.5 408 L 18.5 415 L 12.5 408 Z " /><path fill="rgb(34,151,241)" stroke="rgb(34,151,241)" stroke-width="0" opacity="0.2235294117647059" d="M 20.5 415 L 22.5 418 L 20.5 415 Z " /><path fill="rgb(34,151,241)" stroke="rgb(34,151,241)" stroke-width="0" opacity="0.2235294117647059" d="M 26.5 419 L 27.5 421 L 26.5 419 Z " /><path fill="rgb(34,151,241)" stroke="rgb(34,151,241)" stroke-width="0" opacity="0.2235294117647059" d="M 29.5 421 L 33 422.5 L 31.5 423 L 29.5 421 Z " /><path fill="rgb(34,151,241)" stroke="rgb(34,151,241)" stroke-width="0" opacity="0.2235294117647059" d="M 45.5 426 L 50 426.5 L 45.5 427 L 45.5 426 Z " /><path fill="rgb(34,151,241)" stroke="rgb(34,151,241)" stroke-width="0" opacity="0.2235294117647059" d="M 279.5 508 L 281.5 511 L 279.5 508 Z " /><path fill="rgb(237,240,242)" stroke="rgb(237,240,242)" stroke-width="0" opacity="0.24313725490196078" d="M 463.5 85 L 467 85.5 L 463.5 86 L 463.5 85 Z " /><path fill="rgb(237,240,242)" stroke="rgb(237,240,242)" stroke-width="0" opacity="0.24313725490196078" d="M 484.5 91 L 488 93.5 L 486.5 93 L 484.5 91 Z " /><path fill="rgb(237,240,242)" stroke="rgb(237,240,242)" stroke-width="0" opacity="0.24313725490196078" d="M 489.5 94 L 491.5 97 L 489.5 94 Z " /><path fill="rgb(237,240,242)" stroke="rgb(237,240,242)" stroke-width="0" opacity="0.24313725490196078" d="M 493.5 97 L 499.5 104 L 493.5 97 Z " /><path fill="rgb(237,240,242)" stroke="rgb(237,240,242)" stroke-width="0" opacity="0.24313725490196078" d="M 500.5 105 L 502.5 108 L 500.5 105 Z " /><path fill="rgb(237,240,242)" stroke="rgb(237,240,242)" stroke-width="0" opacity="0.24313725490196078" d="M 503.5 109 L 504.5 111 L 503.5 109 Z " /><path fill="rgb(237,240,242)" stroke="rgb(237,240,242)" stroke-width="0" opacity="0.24313725490196078" d="M 511.5 128 L 512 130.5 L 511 130.5 L 511.5 128 Z " /><path fill="rgb(237,240,242)" stroke="rgb(237,240,242)" stroke-width="0" opacity="0.24313725490196078" d="M 511.5 466 L 512 468.5 L 511 468.5 L 511.5 466 Z " /><path fill="rgb(237,240,242)" stroke="rgb(237,240,242)" stroke-width="0" opacity="0.24313725490196078" d="M 507.5 480 L 508 481.5 L 505.5 485 L 506 483.5 L 507.5 480 Z " /><path fill="rgb(237,240,242)" stroke="rgb(237,240,242)" stroke-width="0" opacity="0.24313725490196078" d="M 503.5 488 L 501.5 491 L 503.5 488 Z " /><path fill="rgb(237,240,242)" stroke="rgb(237,240,242)" stroke-width="0" opacity="0.24313725490196078" d="M 500.5 492 L 492.5 501 L 500.5 492 Z " /><path fill="rgb(237,240,242)" stroke="rgb(237,240,242)" stroke-width="0" opacity="0.24313725490196078" d="M 490.5 501 L 488.5 504 L 490.5 501 Z " /><path fill="rgb(237,240,242)" stroke="rgb(237,240,242)" stroke-width="0" opacity="0.24313725490196078" d="M 484.5 505 L 483.5 507 L 482 506.5 L 484.5 505 Z " /><path fill="rgb(237,240,242)" stroke="rgb(237,240,242)" stroke-width="0" opacity="0.24313725490196078" d="M 466.5 511 L 469 511.5 L 466.5 512 L 466.5 511 Z " /><path fill="rgb(235,238,240)" stroke="rgb(235,238,240)" stroke-width="0" opacity="0.6784313725490196" d="M 494.5 99 L 498.5 104 L 494.5 99 Z " /><path fill="rgb(235,238,241)" stroke="rgb(235,238,241)" stroke-width="0" opacity="0.6666666666666666" d="M 261.5 85 L 463 85.5 L 261.5 86 L 261.5 85 Z " /><path fill="rgb(235,238,241)" stroke="rgb(235,238,241)" stroke-width="0" opacity="0.6666666666666666" d="M 492.5 97 L 493.5 99 L 492.5 97 Z " /><path fill="rgb(224,233,239)" stroke="rgb(224,233,239)" stroke-width="0" opacity="0.996078431372549" d="M 142.5 131 L 140.5 134 L 142.5 131 Z " /><path fill="rgb(224,233,239)" stroke="rgb(224,233,239)" stroke-width="0" opacity="0.996078431372549" d="M 334.5 268 L 332.5 271 L 334.5 268 Z " /><path fill="rgb(224,233,239)" stroke="rgb(224,233,239)" stroke-width="0" opacity="0.996078431372549" d="M 88.5 294 L 89.5 296 L 88.5 294 Z " /><path fill="rgb(224,233,239)" stroke="rgb(224,233,239)" stroke-width="0" opacity="0.996078431372549" d="M 194.5 294 L 195.5 296 L 194.5 294 Z " /><path fill="rgb(224,233,239)" stroke="rgb(224,233,239)" stroke-width="0" opacity="0.996078431372549" d="M 372.5 302 L 373.5 304 L 372.5 302 Z " /><path fill="rgb(224,233,239)" stroke="rgb(224,233,239)" stroke-width="0" opacity="0.996078431372549" d="M 353.5 314 L 354.5 316 L 353.5 314 Z " /><path fill="rgb(224,233,239)" stroke="rgb(224,233,239)" stroke-width="0" opacity="0.996078431372549" d="M 358.5 322 L 354.5 327 L 358.5 322 Z " /><path fill="rgb(224,233,239)" stroke="rgb(224,233,239)" stroke-width="0" opacity="0.996078431372549" d="M 398.5 330 L 414.5 347 L 398.5 330 Z " /><path fill="rgb(224,233,239)" stroke="rgb(224,233,239)" stroke-width="0" opacity="0.996078431372549" d="M 367.5 344 L 364.5 348 L 367.5 344 Z " /><path fill="rgb(224,233,239)" stroke="rgb(224,233,239)" stroke-width="0" opacity="0.996078431372549" d="M 431.5 362 L 435.5 367 L 431.5 362 Z " /><path fill="rgb(224,233,239)" stroke="rgb(224,233,239)" stroke-width="0" opacity="0.996078431372549" d="M 407.5 370 L 411.5 375 L 407.5 370 Z " /><path fill="rgb(224,233,239)" stroke="rgb(224,233,239)" stroke-width="0" opacity="0.996078431372549" d="M 366.5 428 L 365.5 430 L 366.5 428 Z " /><path fill="rgb(224,233,239)" stroke="rgb(224,233,239)" stroke-width="0" opacity="0.996078431372549" d="M 359.5 436 L 358.5 438 L 359.5 436 Z " /><path fill="rgb(224,233,239)" stroke="rgb(224,233,239)" stroke-width="0" opacity="0.996078431372549" d="M 352.5 444 L 351.5 446 L 352.5 444 Z " /><path fill="rgb(224,233,239)" stroke="rgb(224,233,239)" stroke-width="0" opacity="0.996078431372549" d="M 345.5 452 L 344.5 454 L 345.5 452 Z " /><path fill="rgb(224,233,239)" stroke="rgb(224,233,239)" stroke-width="0" opacity="0.996078431372549" d="M 338.5 460 L 337.5 462 L 338.5 460 Z " /><path fill="rgb(224,233,239)" stroke="rgb(224,233,239)" stroke-width="0" opacity="0.996078431372549" d="M 331.5 468 L 330.5 470 L 331.5 468 Z " /><path fill="rgb(224,233,239)" stroke="rgb(224,233,239)" stroke-width="0" opacity="0.996078431372549" d="M 324.5 476 L 323.5 478 L 324.5 476 Z " /><path fill="rgb(224,233,239)" stroke="rgb(224,233,239)" stroke-width="0" opacity="0.996078431372549" d="M 317.5 484 L 316.5 486 L 317.5 484 Z " /><path fill="rgb(224,233,239)" stroke="rgb(224,233,239)" stroke-width="0" opacity="0.996078431372549" d="M 310.5 492 L 309.5 494 L 310.5 492 Z " /><path fill="rgb(224,233,239)" stroke="rgb(224,233,239)" stroke-width="0" opacity="0.996078431372549" d="M 303.5 500 L 302.5 502 L 303.5 500 Z " /><path fill="rgb(224,233,239)" stroke="rgb(224,233,239)" stroke-width="0" opacity="0.996078431372549" d="M 296.5 508 L 295.5 510 L 296.5 508 Z " /><path fill="rgb(235,239,241)" stroke="rgb(235,239,241)" stroke-width="0" opacity="0.996078431372549" d="M 490.5 96 L 491.5 98 L 490.5 96 Z " /><path fill="rgb(235,239,241)" stroke="rgb(235,239,241)" stroke-width="0" opacity="0.996078431372549" d="M 500.5 106 L 501.5 108 L 500.5 106 Z " /><path fill="rgb(235,239,241)" stroke="rgb(235,239,241)" stroke-width="0" opacity="0.996078431372549" d="M 511.5 135 L 512 138.5 L 511 138.5 L 511.5 135 Z " /><path fill="rgb(235,239,241)" stroke="rgb(235,239,241)" stroke-width="0" opacity="0.996078431372549" d="M 363.5 348 L 362.5 350 L 363.5 348 Z " /><path fill="rgb(235,239,241)" stroke="rgb(235,239,241)" stroke-width="0" opacity="0.996078431372549" d="M 429.5 360 L 430.5 362 L 429.5 360 Z " /><path fill="rgb(235,239,241)" stroke="rgb(235,239,241)" stroke-width="0" opacity="0.996078431372549" d="M 412.5 375 L 414.5 378 L 412.5 375 Z " /><path fill="rgb(235,239,241)" stroke="rgb(235,239,241)" stroke-width="0" opacity="0.996078431372549" d="M 368.5 426 L 367.5 428 L 368.5 426 Z " /><path fill="rgb(235,239,241)" stroke="rgb(235,239,241)" stroke-width="0" opacity="0.996078431372549" d="M 361.5 434 L 360.5 436 L 361.5 434 Z " /><path fill="rgb(235,239,241)" stroke="rgb(235,239,241)" stroke-width="0" opacity="0.996078431372549" d="M 354.5 442 L 353.5 444 L 354.5 442 Z " /><path fill="rgb(235,239,241)" stroke="rgb(235,239,241)" stroke-width="0" opacity="0.996078431372549" d="M 347.5 450 L 346.5 452 L 347.5 450 Z " /><path fill="rgb(235,239,241)" stroke="rgb(235,239,241)" stroke-width="0" opacity="0.996078431372549" d="M 340.5 458 L 339.5 460 L 340.5 458 Z " /><path fill="rgb(235,239,241)" stroke="rgb(235,239,241)" stroke-width="0" opacity="0.996078431372549" d="M 511.5 458 L 512 461.5 L 511 461.5 L 511.5 458 Z " /><path fill="rgb(235,239,241)" stroke="rgb(235,239,241)" stroke-width="0" opacity="0.996078431372549" d="M 333.5 466 L 332.5 468 L 333.5 466 Z " /><path fill="rgb(235,239,241)" stroke="rgb(235,239,241)" stroke-width="0" opacity="0.996078431372549" d="M 326.5 474 L 325.5 476 L 326.5 474 Z " /><path fill="rgb(235,239,241)" stroke="rgb(235,239,241)" stroke-width="0" opacity="0.996078431372549" d="M 319.5 482 L 318.5 484 L 319.5 482 Z " /><path fill="rgb(235,239,241)" stroke="rgb(235,239,241)" stroke-width="0" opacity="0.996078431372549" d="M 312.5 490 L 311.5 492 L 312.5 490 Z " /><path fill="rgb(235,239,241)" stroke="rgb(235,239,241)" stroke-width="0" opacity="0.996078431372549" d="M 498.5 493 L 493.5 499 L 498.5 493 Z " /><path fill="rgb(235,239,241)" stroke="rgb(235,239,241)" stroke-width="0" opacity="0.996078431372549" d="M 305.5 498 L 304.5 500 L 305.5 498 Z " /><path fill="rgb(235,239,241)" stroke="rgb(235,239,241)" stroke-width="0" opacity="0.996078431372549" d="M 298.5 506 L 297.5 508 L 298.5 506 Z " /><path fill="rgb(235,239,241)" stroke="rgb(235,239,241)" stroke-width="0" opacity="0.996078431372549" d="M 459.5 511 L 462 511.5 L 459.5 512 L 459.5 511 Z " /><path fill="rgb(236,239,241)" stroke="rgb(236,239,241)" stroke-width="0" opacity="1" d="M 262 86 L 465.5 86 Q 488.3 90.3 500 105.5 L 508 119.5 L 511 129.5 L 511 138.5 L 512 139.5 L 512 457.5 L 511 458.5 L 511 468.5 L 508 478.5 Q 501.9 492.4 490.5 501 L 478.5 508 L 468.5 511 L 459.5 511 L 458.5 512 L 293.5 512 L 293.5 511 L 299 506.5 L 369 426.5 L 374 418.5 L 374 413.5 L 354 356.5 L 374.5 338 L 420.5 383 Q 424 385.5 431.5 384 Q 438.6 381.1 438 370.5 L 429.5 360 L 390 321.5 L 418 279.5 L 429 257.5 L 435 241.5 L 436 235 L 462.5 235 L 468 230.5 Q 470.8 227.8 470 221.5 L 464.5 214 L 462.5 213 L 384 213 L 384 198.5 L 379.5 193 Q 376 190.5 368.5 192 Q 363.4 194.4 362 200.5 L 362 213 L 305.5 213 L 305 211.5 L 262 86 Z " /><path fill="rgb(236,239,241)" stroke="rgb(236,239,241)" stroke-width="0" opacity="1" d="M 313 235 L 412.5 235 L 413 236.5 Q 398.5 275 374.5 304 L 356 281.5 L 350 269 L 343.5 266 L 338.5 266 L 332 270.5 Q 329.2 273.2 330 279.5 L 339 296.5 L 359 321.5 L 347.5 333 L 346 333 L 313 235 Z " /><path fill="rgb(76,166,239)" stroke="rgb(76,166,239)" stroke-width="0" opacity="0.996078431372549" d="M 147.5 128 L 151 128.5 L 147.5 129 L 147.5 128 Z " /><path fill="rgb(76,166,239)" stroke="rgb(76,166,239)" stroke-width="0" opacity="0.996078431372549" d="M 211.5 294 L 209.5 297 L 211.5 294 Z " /><path fill="rgb(76,166,239)" stroke="rgb(76,166,239)" stroke-width="0" opacity="0.996078431372549" d="M 95.5 298 L 98 298.5 L 95.5 299 L 95.5 298 Z " /><path fill="rgb(76,166,239)" stroke="rgb(76,166,239)" stroke-width="0" opacity="0.996078431372549" d="M 367.5 426 L 366.5 428 L 367.5 426 Z " /><path fill="rgb(76,166,239)" stroke="rgb(76,166,239)" stroke-width="0" opacity="0.996078431372549" d="M 360.5 434 L 359.5 436 L 360.5 434 Z " /><path fill="rgb(76,166,239)" stroke="rgb(76,166,239)" stroke-width="0" opacity="0.996078431372549" d="M 353.5 442 L 352.5 444 L 353.5 442 Z " /><path fill="rgb(76,166,239)" stroke="rgb(76,166,239)" stroke-width="0" opacity="0.996078431372549" d="M 346.5 450 L 345.5 452 L 346.5 450 Z " /><path fill="rgb(76,166,239)" stroke="rgb(76,166,239)" stroke-width="0" opacity="0.996078431372549" d="M 339.5 458 L 338.5 460 L 339.5 458 Z " /><path fill="rgb(76,166,239)" stroke="rgb(76,166,239)" stroke-width="0" opacity="0.996078431372549" d="M 332.5 466 L 331.5 468 L 332.5 466 Z " /><path fill="rgb(76,166,239)" stroke="rgb(76,166,239)" stroke-width="0" opacity="0.996078431372549" d="M 325.5 474 L 324.5 476 L 325.5 474 Z " /><path fill="rgb(76,166,239)" stroke="rgb(76,166,239)" stroke-width="0" opacity="0.996078431372549" d="M 318.5 482 L 317.5 484 L 318.5 482 Z " /><path fill="rgb(76,166,239)" stroke="rgb(76,166,239)" stroke-width="0" opacity="0.996078431372549" d="M 311.5 490 L 310.5 492 L 311.5 490 Z " /><path fill="rgb(76,166,239)" stroke="rgb(76,166,239)" stroke-width="0" opacity="0.996078431372549" d="M 304.5 498 L 303.5 500 L 304.5 498 Z " /><path fill="rgb(76,166,239)" stroke="rgb(76,166,239)" stroke-width="0" opacity="0.996078431372549" d="M 297.5 506 L 294.5 510 L 297.5 506 Z " /><path fill="rgb(245,248,249)" stroke="rgb(245,248,249)" stroke-width="0" opacity="1" d="M 103.5 294 L 102.5 296 L 103.5 294 Z " /><path fill="rgb(250,250,250)" stroke="rgb(250,250,250)" stroke-width="0" opacity="1" d="M 147.5 129 L 151.5 129 L 158 133.5 L 208 271.5 L 213 289.5 L 207.5 297 L 199.5 298 L 194 293.5 L 173 234 L 126.5 234 L 125 235.5 L 107 288.5 L 100.5 297 L 94.5 298 L 87 292.5 L 86 285.5 L 139 136.5 L 143.5 131 L 147.5 129 Z M 150 170 L 133 214 L 165 214 L 150 170 Z " /><path fill="rgb(118,187,242)" stroke="rgb(118,187,242)" stroke-width="0" opacity="0.9921568627450981" d="M 85.5 286 L 86 289.5 L 85 289.5 L 85.5 286 Z " /><path fill="rgb(118,187,242)" stroke="rgb(118,187,242)" stroke-width="0" opacity="0.9921568627450981" d="M 370.5 423 L 368.5 426 L 370.5 423 Z " /><path fill="rgb(118,187,242)" stroke="rgb(118,187,242)" stroke-width="0" opacity="0.9921568627450981" d="M 362.5 432 L 361.5 434 L 362.5 432 Z " /><path fill="rgb(118,187,242)" stroke="rgb(118,187,242)" stroke-width="0" opacity="0.9921568627450981" d="M 355.5 440 L 354.5 442 L 355.5 440 Z " /><path fill="rgb(118,187,242)" stroke="rgb(118,187,242)" stroke-width="0" opacity="0.9921568627450981" d="M 348.5 448 L 347.5 450 L 348.5 448 Z " /><path fill="rgb(118,187,242)" stroke="rgb(118,187,242)" stroke-width="0" opacity="0.9921568627450981" d="M 341.5 456 L 340.5 458 L 341.5 456 Z " /><path fill="rgb(118,187,242)" stroke="rgb(118,187,242)" stroke-width="0" opacity="0.9921568627450981" d="M 334.5 464 L 333.5 466 L 334.5 464 Z " /><path fill="rgb(118,187,242)" stroke="rgb(118,187,242)" stroke-width="0" opacity="0.9921568627450981" d="M 327.5 472 L 326.5 474 L 327.5 472 Z " /><path fill="rgb(147,159,166)" stroke="rgb(147,159,166)" stroke-width="0" opacity="1" d="M 366.5 194 L 365.5 196 L 366.5 194 Z " /><path fill="rgb(147,159,166)" stroke="rgb(147,159,166)" stroke-width="0" opacity="1" d="M 348.5 269 L 349.5 271 L 348.5 269 Z " /><path fill="rgb(147,159,166)" stroke="rgb(147,159,166)" stroke-width="0" opacity="1" d="M 368.5 298 L 369.5 300 L 368.5 298 Z " /><path fill="rgb(147,159,166)" stroke="rgb(147,159,166)" stroke-width="0" opacity="1" d="M 357.5 318 L 358.5 320 L 357.5 318 Z " /><path fill="rgb(147,159,166)" stroke="rgb(147,159,166)" stroke-width="0" opacity="1" d="M 348.5 332 L 347.5 334 L 348.5 332 Z " /><path fill="rgb(147,159,166)" stroke="rgb(147,159,166)" stroke-width="0" opacity="1" d="M 361.5 349 L 360.5 351 L 361.5 349 Z " /><path fill="rgb(147,159,166)" stroke="rgb(147,159,166)" stroke-width="0" opacity="1" d="M 387.5 350 L 394.5 358 L 387.5 350 Z " /><path fill="rgb(147,159,166)" stroke="rgb(147,159,166)" stroke-width="0" opacity="1" d="M 355.5 354 L 354.5 356 L 355.5 354 Z " /><path fill="rgb(147,159,166)" stroke="rgb(147,159,166)" stroke-width="0" opacity="1" d="M 424.5 356 L 428.5 361 L 424.5 356 Z " /><path fill="rgb(147,159,166)" stroke="rgb(147,159,166)" stroke-width="0" opacity="1" d="M 415.5 377 L 417.5 380 L 415.5 377 Z " /><path fill="rgb(147,159,166)" stroke="rgb(147,159,166)" stroke-width="0" opacity="1" d="M 434.5 380 L 433.5 382 L 434.5 380 Z " /><path fill="rgb(124,139,146)" stroke="rgb(124,139,146)" stroke-width="0" opacity="1" d="M 411.5 373 L 412.5 375 L 411.5 373 Z " /><path fill="rgb(105,122,130)" stroke="rgb(105,122,130)" stroke-width="0" opacity="1" d="M 334.5 269 L 333.5 271 L 334.5 269 Z " /><path fill="rgb(105,122,130)" stroke="rgb(105,122,130)" stroke-width="0" opacity="1" d="M 399.5 332 L 409.5 343 L 399.5 332 Z " /><path fill="rgb(105,122,130)" stroke="rgb(105,122,130)" stroke-width="0" opacity="1" d="M 431.5 363 L 432.5 365 L 431.5 363 Z " /><path fill="rgb(105,122,130)" stroke="rgb(105,122,130)" stroke-width="0" opacity="1" d="M 409.5 371 L 410.5 373 L 409.5 371 Z " /><path fill="rgb(69,90,100)" stroke="rgb(69,90,100)" stroke-width="0" opacity="1" d="M 369.5 193 L 377.5 193 L 383 198.5 L 384 214 L 461.5 214 L 468 219.5 L 469 225.5 L 463.5 233 L 461.5 234 L 436.5 234 L 435 235.5 L 430 252.5 L 421 271.5 Q 407.1 298.6 388 320.5 L 422.5 356 L 436 368.5 L 437 375.5 L 432.5 382 Q 429.3 384.3 422.5 383 L 384 346.5 L 375.5 337 L 373.5 337 Q 365 348.7 353 355 L 347 334.5 L 361 321.5 L 339 294.5 L 333 284.5 L 331 279.5 L 331 275.5 L 336.5 268 L 343.5 267 L 350 271.5 L 358 286.5 L 374.5 306 Q 390 287 402 264.5 L 413 240.5 L 414 234 L 312.5 234 L 312 232.5 L 306 214 L 362.5 214 L 363 213.5 L 363 200.5 L 367.5 194 L 369.5 193 Z " /><path fill="rgb(125,140,147)" stroke="rgb(125,140,147)" stroke-width="0" opacity="1" d="M 309.5 213 L 362 213.5 L 309.5 214 L 309.5 213 Z " /><path fill="rgb(125,140,147)" stroke="rgb(125,140,147)" stroke-width="0" opacity="1" d="M 384.5 213 L 423 213.5 L 384.5 214 L 384.5 213 Z " /><path fill="rgb(125,140,147)" stroke="rgb(125,140,147)" stroke-width="0" opacity="1" d="M 431.5 213 L 459 213.5 L 431.5 214 L 431.5 213 Z " /><path fill="rgb(125,140,147)" stroke="rgb(125,140,147)" stroke-width="0" opacity="1" d="M 312.5 234 L 369 234.5 L 312.5 235 L 312.5 234 Z " /><path fill="rgb(125,140,147)" stroke="rgb(125,140,147)" stroke-width="0" opacity="1" d="M 377.5 234 L 413 234.5 L 377.5 235 L 377.5 234 Z " /><path fill="rgb(125,140,147)" stroke="rgb(125,140,147)" stroke-width="0" opacity="1" d="M 436.5 234 L 459 234.5 L 436.5 235 L 436.5 234 Z " /><path fill="rgb(125,140,147)" stroke="rgb(125,140,147)" stroke-width="0" opacity="1" d="M 413.5 375 L 414.5 377 L 413.5 375 Z " /><path fill="rgb(87,108,119)" stroke="rgb(87,108,119)" stroke-width="0" opacity="1" d="M 425.5 213 L 428 213.5 L 425.5 214 L 425.5 213 Z " /><path fill="rgb(87,108,119)" stroke="rgb(87,108,119)" stroke-width="0" opacity="1" d="M 372.5 234 L 375 234.5 L 372.5 235 L 372.5 234 Z " /><path fill="rgb(87,108,119)" stroke="rgb(87,108,119)" stroke-width="0" opacity="1" d="M 359.5 322 L 356.5 326 L 359.5 322 Z " /><path fill="rgb(87,108,119)" stroke="rgb(87,108,119)" stroke-width="0" opacity="1" d="M 393.5 326 L 398.5 332 L 393.5 326 Z " /><path fill="rgb(87,108,119)" stroke="rgb(87,108,119)" stroke-width="0" opacity="1" d="M 354.5 327 L 352.5 330 L 354.5 327 Z " /><path fill="rgb(87,108,119)" stroke="rgb(87,108,119)" stroke-width="0" opacity="1" d="M 373.5 337 L 365.5 346 L 373.5 337 Z " /><path fill="rgb(87,108,119)" stroke="rgb(87,108,119)" stroke-width="0" opacity="1" d="M 410.5 343 L 417.5 351 L 410.5 343 Z " /><path fill="rgb(87,108,119)" stroke="rgb(87,108,119)" stroke-width="0" opacity="1" d="M 405.5 367 L 408.5 371 L 405.5 367 Z " /><path fill="rgb(75,97,108)" stroke="rgb(75,97,108)" stroke-width="0" opacity="1" d="M 465.5 216 L 466.5 218 L 465.5 216 Z " /><path fill="rgb(75,97,108)" stroke="rgb(75,97,108)" stroke-width="0" opacity="1" d="M 466.5 230 L 465.5 232 L 466.5 230 Z " /><path fill="rgb(75,97,108)" stroke="rgb(75,97,108)" stroke-width="0" opacity="1" d="M 389.5 322 L 392.5 326 L 389.5 322 Z " /><path fill="rgb(75,97,108)" stroke="rgb(75,97,108)" stroke-width="0" opacity="1" d="M 351.5 330 L 350.5 332 L 351.5 330 Z " /><path fill="rgb(75,97,108)" stroke="rgb(75,97,108)" stroke-width="0" opacity="1" d="M 376.5 338 L 383.5 346 L 376.5 338 Z " /><path fill="rgb(75,97,108)" stroke="rgb(75,97,108)" stroke-width="0" opacity="1" d="M 418.5 351 L 422.5 356 L 418.5 351 Z " /><path fill="rgb(75,97,108)" stroke="rgb(75,97,108)" stroke-width="0" opacity="1" d="M 398.5 360 L 404.5 367 L 398.5 360 Z " /><path fill="rgb(201,211,218)" stroke="rgb(201,211,218)" stroke-width="0" opacity="1" d="M 380.5 194 L 381.5 196 L 380.5 194 Z " /><path fill="rgb(201,211,218)" stroke="rgb(201,211,218)" stroke-width="0" opacity="1" d="M 362.5 201 L 363 212.5 L 362 212.5 L 362.5 201 Z " /><path fill="rgb(201,211,218)" stroke="rgb(201,211,218)" stroke-width="0" opacity="1" d="M 465.5 215 L 467.5 218 L 465.5 215 Z " /><path fill="rgb(201,211,218)" stroke="rgb(201,211,218)" stroke-width="0" opacity="1" d="M 469.5 222 L 470 225.5 L 469 225.5 L 469.5 222 Z " /><path fill="rgb(201,211,218)" stroke="rgb(201,211,218)" stroke-width="0" opacity="1" d="M 467.5 230 L 465.5 233 L 467.5 230 Z " /><path fill="rgb(201,211,218)" stroke="rgb(201,211,218)" stroke-width="0" opacity="1" d="M 339.5 266 L 343 266.5 L 339.5 267 L 339.5 266 Z " /><path fill="rgb(201,211,218)" stroke="rgb(201,211,218)" stroke-width="0" opacity="1" d="M 330.5 275 L 331 278.5 L 330 278.5 L 330.5 275 Z " /><path fill="rgb(201,211,218)" stroke="rgb(201,211,218)" stroke-width="0" opacity="1" d="M 365.5 294 L 366.5 296 L 365.5 294 Z " /><path fill="rgb(201,211,218)" stroke="rgb(201,211,218)" stroke-width="0" opacity="1" d="M 370.5 300 L 371.5 302 L 370.5 300 Z " /><path fill="rgb(201,211,218)" stroke="rgb(201,211,218)" stroke-width="0" opacity="1" d="M 346.5 305 L 347.5 307 L 346.5 305 Z " /><path fill="rgb(201,211,218)" stroke="rgb(201,211,218)" stroke-width="0" opacity="1" d="M 350.5 310 L 351.5 312 L 350.5 310 Z " /><path fill="rgb(201,211,218)" stroke="rgb(201,211,218)" stroke-width="0" opacity="1" d="M 355.5 316 L 356.5 318 L 355.5 316 Z " /><path fill="rgb(201,211,218)" stroke="rgb(201,211,218)" stroke-width="0" opacity="1" d="M 392.5 316 L 391.5 318 L 392.5 316 Z " /><path fill="rgb(201,211,218)" stroke="rgb(201,211,218)" stroke-width="0" opacity="1" d="M 389.5 321 L 397.5 330 L 389.5 321 Z " /><path fill="rgb(201,211,218)" stroke="rgb(201,211,218)" stroke-width="0" opacity="1" d="M 353.5 327 L 349.5 332 L 353.5 327 Z " /><path fill="rgb(201,211,218)" stroke="rgb(201,211,218)" stroke-width="0" opacity="1" d="M 374.5 337 L 386.5 350 L 374.5 338 L 368 343.5 L 374.5 337 Z " /><path fill="rgb(201,211,218)" stroke="rgb(201,211,218)" stroke-width="0" opacity="1" d="M 415.5 347 L 423.5 356 L 415.5 347 Z " /><path fill="rgb(201,211,218)" stroke="rgb(201,211,218)" stroke-width="0" opacity="1" d="M 359.5 351 L 358.5 353 L 359.5 351 Z " /><path fill="rgb(201,211,218)" stroke="rgb(201,211,218)" stroke-width="0" opacity="1" d="M 395.5 358 L 406.5 370 L 395.5 358 Z " /><path fill="rgb(201,211,218)" stroke="rgb(201,211,218)" stroke-width="0" opacity="1" d="M 437.5 371 L 438 375.5 L 437 375.5 L 437.5 371 Z " /><path fill="rgb(201,211,218)" stroke="rgb(201,211,218)" stroke-width="0" opacity="1" d="M 418.5 380 L 419.5 382 L 418.5 380 Z " /><path fill="rgb(171,208,237)" stroke="rgb(171,208,237)" stroke-width="0" opacity="1" d="M 156.5 131 L 157.5 133 L 156.5 131 Z " /><path fill="rgb(171,208,237)" stroke="rgb(171,208,237)" stroke-width="0" opacity="1" d="M 164.5 212 L 163.5 214 L 134 213.5 L 163.5 213 L 164.5 212 Z " /><path fill="rgb(171,208,237)" stroke="rgb(171,208,237)" stroke-width="0" opacity="1" d="M 126.5 234 L 172 234.5 L 126.5 235 L 126.5 234 Z " /><path fill="rgb(171,208,237)" stroke="rgb(171,208,237)" stroke-width="0" opacity="1" d="M 201.5 298 L 204 298.5 L 201.5 299 L 201.5 298 Z " /><path fill="rgb(171,208,237)" stroke="rgb(171,208,237)" stroke-width="0" opacity="1" d="M 321.5 479 L 320.5 481 L 321.5 479 Z " /><path fill="rgb(171,208,237)" stroke="rgb(171,208,237)" stroke-width="0" opacity="1" d="M 314.5 487 L 313.5 489 L 314.5 487 Z " /><path fill="rgb(171,208,237)" stroke="rgb(171,208,237)" stroke-width="0" opacity="1" d="M 307.5 495 L 306.5 497 L 307.5 495 Z " /><path fill="rgb(171,208,237)" stroke="rgb(171,208,237)" stroke-width="0" opacity="1" d="M 300.5 503 L 299.5 505 L 300.5 503 Z " /><path fill="rgb(33,138,229)" stroke="rgb(33,138,229)" stroke-width="0" opacity="0.996078431372549" d="M 249.5 426 L 365 426.5 L 249.5 427 L 249.5 426 Z " /><path fill="rgb(33,138,229)" stroke="rgb(33,138,229)" stroke-width="0" opacity="0.996078431372549" d="M 280.5 508 L 281.5 510 L 280.5 508 Z " /><path fill="rgb(25,118,210)" stroke="rgb(25,118,210)" stroke-width="0" opacity="1" d="M 365.5 426 L 367 426.5 L 292.5 511 L 287.5 512 L 283.5 511 L 279 506.5 L 249 427.5 L 364.5 427 L 365.5 426 Z " /><path fill="rgb(23,118,210)" stroke="rgb(23,118,210)" stroke-width="0" opacity="0.3254901960784314" d="M 249.5 429 L 251 432.5 L 250 432.5 L 249.5 429 Z " /><path fill="rgb(23,118,210)" stroke="rgb(23,118,210)" stroke-width="0" opacity="0.3254901960784314" d="M 252.5 437 L 254 440.5 L 253 440.5 L 252.5 437 Z " /><path fill="rgb(23,118,210)" stroke="rgb(23,118,210)" stroke-width="0" opacity="0.3254901960784314" d="M 255.5 445 L 257 448.5 L 256 448.5 L 255.5 445 Z " /><path fill="rgb(23,118,210)" stroke="rgb(23,118,210)" stroke-width="0" opacity="0.3254901960784314" d="M 258.5 453 L 260 456.5 L 259 456.5 L 258.5 453 Z " /><path fill="rgb(23,118,210)" stroke="rgb(23,118,210)" stroke-width="0" opacity="0.3254901960784314" d="M 261.5 461 L 263 464.5 L 262 464.5 L 261.5 461 Z " /><path fill="rgb(23,118,210)" stroke="rgb(23,118,210)" stroke-width="0" opacity="0.3254901960784314" d="M 264.5 469 L 266 472.5 L 265 472.5 L 264.5 469 Z " /><path fill="rgb(23,118,210)" stroke="rgb(23,118,210)" stroke-width="0" opacity="0.3254901960784314" d="M 267.5 477 L 269 480.5 L 268 480.5 L 267.5 477 Z " /><path fill="rgb(23,118,210)" stroke="rgb(23,118,210)" stroke-width="0" opacity="0.3254901960784314" d="M 270.5 485 L 272 488.5 L 271 488.5 L 270.5 485 Z " /><path fill="rgb(23,118,210)" stroke="rgb(23,118,210)" stroke-width="0" opacity="0.3254901960784314" d="M 273.5 493 L 275 496.5 L 274 496.5 L 273.5 493 Z " /></svg>