<svg viewBox="0 0 512 512" version="1.1" xmlns="http://www.w3.org/2000/svg" desc="Created with imagetracer.js version 1.2.6" ><path fill="rgb(229,239,232)" stroke="rgb(229,239,232)" stroke-width="0" opacity="0.9921568627450981" d="M 68.5 120 L 71.5 124 L 68.5 120 Z " /><path fill="rgb(229,239,232)" stroke="rgb(229,239,232)" stroke-width="0" opacity="0.9921568627450981" d="M 186.5 121 L 185.5 123 L 186.5 121 Z " /><path fill="rgb(229,239,232)" stroke="rgb(229,239,232)" stroke-width="0" opacity="0.9921568627450981" d="M 292.5 176 L 293.5 178 L 292.5 176 Z " /><path fill="rgb(229,239,232)" stroke="rgb(229,239,232)" stroke-width="0" opacity="0.9921568627450981" d="M 70.5 261 L 69.5 263 L 70.5 261 Z " /><path fill="rgb(229,239,232)" stroke="rgb(229,239,232)" stroke-width="0" opacity="0.9921568627450981" d="M 423.5 293 L 421.5 296 L 423.5 293 Z " /><path fill="rgb(229,239,232)" stroke="rgb(229,239,232)" stroke-width="0" opacity="0.9921568627450981" d="M 316.5 336 L 314.5 339 L 316.5 336 Z " /><path fill="rgb(229,239,232)" stroke="rgb(229,239,232)" stroke-width="0" opacity="0.9921568627450981" d="M 314.5 365 L 359.5 411 L 314.5 365 Z " /><path fill="rgb(236,239,240)" stroke="rgb(236,239,240)" stroke-width="0" opacity="0.996078431372549" d="M 54.5 0 L 58 0.5 L 54.5 1 L 54.5 0 Z " /><path fill="rgb(236,239,240)" stroke="rgb(236,239,240)" stroke-width="0" opacity="0.996078431372549" d="M 305.5 0 L 308 0.5 L 305.5 1 L 305.5 0 Z " /><path fill="rgb(236,239,240)" stroke="rgb(236,239,240)" stroke-width="0" opacity="0.996078431372549" d="M 24.5 11 L 23.5 13 L 24.5 11 Z " /><path fill="rgb(236,239,240)" stroke="rgb(236,239,240)" stroke-width="0" opacity="0.996078431372549" d="M 339.5 12 L 340.5 14 L 339.5 12 Z " /><path fill="rgb(236,239,240)" stroke="rgb(236,239,240)" stroke-width="0" opacity="0.996078431372549" d="M 19.5 15 L 15.5 20 L 19.5 15 Z " /><path fill="rgb(236,239,240)" stroke="rgb(236,239,240)" stroke-width="0" opacity="0.996078431372549" d="M 349.5 22 L 350.5 24 L 349.5 22 Z " /><path fill="rgb(236,239,240)" stroke="rgb(236,239,240)" stroke-width="0" opacity="0.996078431372549" d="M 12.5 23 L 11.5 25 L 12.5 23 Z " /><path fill="rgb(236,239,240)" stroke="rgb(236,239,240)" stroke-width="0" opacity="0.996078431372549" d="M 0.5 54 L 1 58.5 L 0 58.5 L 0.5 54 Z " /><path fill="rgb(236,239,240)" stroke="rgb(236,239,240)" stroke-width="0" opacity="0.996078431372549" d="M 70.5 90 L 69.5 92 L 70.5 90 Z " /><path fill="rgb(236,239,240)" stroke="rgb(236,239,240)" stroke-width="0" opacity="0.996078431372549" d="M 223.5 214 L 217.5 221 L 223.5 214 Z " /><path fill="rgb(236,239,240)" stroke="rgb(236,239,240)" stroke-width="0" opacity="0.996078431372549" d="M 202.5 355 L 203 358.5 L 202 358.5 L 202.5 355 Z " /><path fill="rgb(236,239,240)" stroke="rgb(236,239,240)" stroke-width="0" opacity="0.996078431372549" d="M 0.5 389 L 1 393.5 L 0 393.5 L 0.5 389 Z " /><path fill="rgb(236,239,240)" stroke="rgb(236,239,240)" stroke-width="0" opacity="0.996078431372549" d="M 11.5 423 L 12.5 425 L 11.5 423 Z " /><path fill="rgb(236,239,240)" stroke="rgb(236,239,240)" stroke-width="0" opacity="0.996078431372549" d="M 15.5 428 L 19.5 433 L 15.5 428 Z " /><path fill="rgb(236,239,240)" stroke="rgb(236,239,240)" stroke-width="0" opacity="0.996078431372549" d="M 23.5 435 L 24.5 437 L 23.5 435 Z " /><path fill="rgb(236,239,240)" stroke="rgb(236,239,240)" stroke-width="0" opacity="0.996078431372549" d="M 55.5 447 L 58 447.5 L 55.5 448 L 55.5 447 Z " /><path fill="rgb(236,239,241)" stroke="rgb(236,239,241)" stroke-width="0" opacity="1" d="M 58.5 0 L 304.5 0 L 305.5 1 L 314.5 1 L 324.5 4 Q 339.4 10.1 349 21.5 Q 358.7 32.8 362 50.5 L 362 162 L 297 183 L 291.5 175 L 280.5 170 L 81.5 170 Q 71.6 172.1 67 179.5 Q 61.8 185.3 64 198.5 Q 66.6 205.9 72.5 210 L 82.5 214 L 223 214.5 Q 213 223.5 207 236.5 L 203 249.5 L 203 256.5 L 201.5 258 L 198.5 256 L 79.5 256 Q 72.1 258.1 68 263.5 Q 62 269.5 64 283.5 Q 66.4 292.1 73.5 296 L 80.5 299 L 196.5 299 L 202 297 L 202 358.5 L 203 359.5 L 203 369.5 L 204 370.5 L 205 382.5 L 214 413.5 L 231 448 L 58.5 448 L 57.5 447 L 48.5 447 Q 25.3 441.7 13 425.5 L 5 412.5 L 1 399.5 L 1 389.5 L 0 388.5 L 0 59.5 L 1 58.5 L 1 48.5 L 5 35.5 Q 11.4 21.9 22.5 13 L 35.5 5 L 48.5 1 L 57.5 1 L 58.5 0 Z M 81 85 L 71 90 L 64 101 Q 62 115 68 121 Q 72 126 80 128 L 177 128 L 185 124 Q 190 120 192 113 L 192 101 L 187 91 L 176 85 L 81 85 Z " /><path fill="rgb(0,0,0)" stroke="rgb(0,0,0)" stroke-width="0" opacity="0" d="M 0 0 L 48 0.5 Q 23.8 4.8 12 21.5 Q 3.5 31.5 0.5 47 L 0 0 Z " /><path fill="rgb(0,0,0)" stroke="rgb(0,0,0)" stroke-width="0" opacity="0" d="M 315.5 0 L 512 0 L 512 254.5 L 511 254.5 Q 509.2 247.3 503.5 244 L 483.5 236 L 389.5 205 L 386.5 203 L 375.5 202 L 259.5 241 L 249 248.5 L 245 257.5 L 245 361.5 L 250 387.5 L 263 418.5 Q 279.3 446.3 302.5 467 Q 332.2 494.3 372 511.5 L 0 512 L 0.5 400 Q 4.8 424.2 21.5 436 Q 32.1 444.9 48.5 448 L 232.5 448 L 232 446.5 Q 220.7 428.8 213 407.5 L 205 375.5 L 204 358.5 L 203 357.5 L 203 258.5 L 206 242.5 L 211 231.5 Q 216.7 221.2 225.5 214 Q 234 206.5 245.5 202 L 363 163 L 363 49.5 Q 358.4 26.6 343.5 14 L 335.5 8 Q 327.8 2.3 315.5 1 L 315.5 0 Z " /><path fill="rgb(0,0,0)" stroke="rgb(0,0,0)" stroke-width="0" opacity="0" d="M 511.5 365 L 512 512 L 385 511.5 Q 437.8 488.8 473 448.5 Q 487.4 431.9 498 411.5 L 507 388.5 L 511.5 365 Z " /><path fill="rgb(237,240,242)" stroke="rgb(237,240,242)" stroke-width="0" opacity="0.21568627450980393" d="M 48.5 0 L 51 0.5 L 48.5 1 L 48.5 0 Z " /><path fill="rgb(237,240,242)" stroke="rgb(237,240,242)" stroke-width="0" opacity="0.21568627450980393" d="M 312.5 0 L 315 0.5 L 312.5 1 L 312.5 0 Z " /><path fill="rgb(237,240,242)" stroke="rgb(237,240,242)" stroke-width="0" opacity="0.21568627450980393" d="M 30.5 6 L 32 6.5 L 29.5 8 L 30.5 6 Z " /><path fill="rgb(237,240,242)" stroke="rgb(237,240,242)" stroke-width="0" opacity="0.21568627450980393" d="M 333.5 7 L 337 9.5 L 335.5 9 L 333.5 7 Z " /><path fill="rgb(237,240,242)" stroke="rgb(237,240,242)" stroke-width="0" opacity="0.21568627450980393" d="M 27.5 8 L 26.5 10 L 23.5 12 L 25.5 9 L 27.5 8 Z " /><path fill="rgb(237,240,242)" stroke="rgb(237,240,242)" stroke-width="0" opacity="0.21568627450980393" d="M 338.5 10 L 340.5 13 L 338.5 10 Z " /><path fill="rgb(237,240,242)" stroke="rgb(237,240,242)" stroke-width="0" opacity="0.21568627450980393" d="M 21.5 12 L 12.5 22 L 21.5 12 Z " /><path fill="rgb(237,240,242)" stroke="rgb(237,240,242)" stroke-width="0" opacity="0.21568627450980393" d="M 343.5 14 L 348.5 20 L 343.5 14 Z " /><path fill="rgb(237,240,242)" stroke="rgb(237,240,242)" stroke-width="0" opacity="0.21568627450980393" d="M 349.5 21 L 351.5 24 L 349.5 21 Z " /><path fill="rgb(237,240,242)" stroke="rgb(237,240,242)" stroke-width="0" opacity="0.21568627450980393" d="M 11.5 23 L 10 25.5 L 8.5 28 L 9 26.5 L 11.5 23 Z " /><path fill="rgb(237,240,242)" stroke="rgb(237,240,242)" stroke-width="0" opacity="0.21568627450980393" d="M 352.5 25 L 353.5 27 L 352.5 25 Z " /><path fill="rgb(237,240,242)" stroke="rgb(237,240,242)" stroke-width="0" opacity="0.21568627450980393" d="M 354.5 28 L 355.5 30 L 354.5 28 Z " /><path fill="rgb(237,240,242)" stroke="rgb(237,240,242)" stroke-width="0" opacity="0.21568627450980393" d="M 7.5 29 L 7 30.5 L 6.5 32 L 6 30.5 L 7.5 29 Z " /><path fill="rgb(237,240,242)" stroke="rgb(237,240,242)" stroke-width="0" opacity="0.21568627450980393" d="M 357.5 33 L 359 36.5 L 358 36.5 L 357.5 33 Z " /><path fill="rgb(237,240,242)" stroke="rgb(237,240,242)" stroke-width="0" opacity="0.21568627450980393" d="M 0.5 47 L 1 50.5 L 0 50.5 L 0.5 47 Z " /><path fill="rgb(237,240,242)" stroke="rgb(237,240,242)" stroke-width="0" opacity="0.21568627450980393" d="M 362.5 49 L 363 53.5 L 362 53.5 L 362.5 49 Z " /><path fill="rgb(237,240,242)" stroke="rgb(237,240,242)" stroke-width="0" opacity="0.21568627450980393" d="M 224.5 214 L 217.5 222 L 224.5 214 Z " /><path fill="rgb(237,240,242)" stroke="rgb(237,240,242)" stroke-width="0" opacity="0.21568627450980393" d="M 216.5 223 L 214.5 226 L 216.5 223 Z " /><path fill="rgb(237,240,242)" stroke="rgb(237,240,242)" stroke-width="0" opacity="0.21568627450980393" d="M 213.5 227 L 213 228.5 L 211.5 231 L 212 229.5 L 213.5 227 Z " /><path fill="rgb(237,240,242)" stroke="rgb(237,240,242)" stroke-width="0" opacity="0.21568627450980393" d="M 203.5 253 L 204 257.5 L 203 257.5 L 203.5 253 Z " /><path fill="rgb(237,240,242)" stroke="rgb(237,240,242)" stroke-width="0" opacity="0.21568627450980393" d="M 203.5 358 L 204 363.5 L 203 363.5 L 203.5 358 Z " /><path fill="rgb(237,240,242)" stroke="rgb(237,240,242)" stroke-width="0" opacity="0.21568627450980393" d="M 204.5 369 L 205 372.5 L 204 372.5 L 204.5 369 Z " /><path fill="rgb(237,240,242)" stroke="rgb(237,240,242)" stroke-width="0" opacity="0.21568627450980393" d="M 205.5 376 L 206 378.5 L 205 378.5 L 205.5 376 Z " /><path fill="rgb(237,240,242)" stroke="rgb(237,240,242)" stroke-width="0" opacity="0.21568627450980393" d="M 0.5 397 L 1 399.5 L 0 399.5 L 0.5 397 Z " /><path fill="rgb(237,240,242)" stroke="rgb(237,240,242)" stroke-width="0" opacity="0.21568627450980393" d="M 215.5 413 L 217 416.5 L 216 416.5 L 215.5 413 Z " /><path fill="rgb(237,240,242)" stroke="rgb(237,240,242)" stroke-width="0" opacity="0.21568627450980393" d="M 6.5 416 L 8 418.5 L 6 417.5 L 6.5 416 Z " /><path fill="rgb(237,240,242)" stroke="rgb(237,240,242)" stroke-width="0" opacity="0.21568627450980393" d="M 8.5 420 L 12 424.5 L 9 422.5 L 8.5 420 Z " /><path fill="rgb(237,240,242)" stroke="rgb(237,240,242)" stroke-width="0" opacity="0.21568627450980393" d="M 218.5 420 L 220 423.5 L 219 423.5 L 218.5 420 Z " /><path fill="rgb(237,240,242)" stroke="rgb(237,240,242)" stroke-width="0" opacity="0.21568627450980393" d="M 12.5 426 L 28 439.5 L 26.5 439 Q 17 434.3 12.5 426 Z " /><path fill="rgb(237,240,242)" stroke="rgb(237,240,242)" stroke-width="0" opacity="0.21568627450980393" d="M 225.5 435 L 228 438.5 L 226 437.5 L 225.5 435 Z " /><path fill="rgb(237,240,242)" stroke="rgb(237,240,242)" stroke-width="0" opacity="0.21568627450980393" d="M 29.5 440 L 32 441.5 L 30.5 442 L 29.5 440 Z " /><path fill="rgb(237,240,242)" stroke="rgb(237,240,242)" stroke-width="0" opacity="0.21568627450980393" d="M 229.5 442 L 232 445.5 L 230 444.5 L 229.5 442 Z " /><path fill="rgb(237,240,242)" stroke="rgb(237,240,242)" stroke-width="0" opacity="0.21568627450980393" d="M 48.5 447 L 51 447.5 L 48.5 448 L 48.5 447 Z " /><path fill="rgb(235,238,241)" stroke="rgb(235,238,241)" stroke-width="0" opacity="0.6784313725490196" d="M 21.5 13 L 20.5 15 L 21.5 13 Z " /><path fill="rgb(235,238,241)" stroke="rgb(235,238,241)" stroke-width="0" opacity="0.6784313725490196" d="M 344.5 16 L 346.5 19 L 344.5 16 Z " /><path fill="rgb(235,238,241)" stroke="rgb(235,238,241)" stroke-width="0" opacity="0.6784313725490196" d="M 14.5 20 L 13.5 22 L 14.5 20 Z " /><path fill="rgb(235,238,241)" stroke="rgb(235,238,241)" stroke-width="0" opacity="0.6784313725490196" d="M 202.5 348 L 203 354.5 L 202 354.5 L 202.5 348 Z " /><path fill="rgb(235,238,241)" stroke="rgb(235,238,241)" stroke-width="0" opacity="0.6784313725490196" d="M 13.5 426 L 14.5 428 L 13.5 426 Z " /><path fill="rgb(235,238,241)" stroke="rgb(235,238,241)" stroke-width="0" opacity="0.6784313725490196" d="M 20.5 433 L 21.5 435 L 20.5 433 Z " /><path fill="rgb(235,238,241)" stroke="rgb(235,238,241)" stroke-width="0" opacity="0.6784313725490196" d="M 52.5 447 L 55 447.5 L 52.5 448 L 52.5 447 Z " /><path fill="rgb(144,164,174)" stroke="rgb(144,164,174)" stroke-width="0" opacity="1" d="M 80.5 86 L 175.5 86 Q 182.9 88.1 187 93.5 Q 192.8 99.2 191 112.5 Q 188.4 119.9 182.5 124 L 176.5 127 Q 171.8 125.7 170.5 128 L 85.5 128 Q 84.2 125.7 79.5 127 L 73.5 124 L 68 118.5 Q 63.2 113.3 65 101.5 Q 67.1 94.1 72.5 90 L 80.5 86 Z " /><path fill="rgb(144,164,174)" stroke="rgb(144,164,174)" stroke-width="0" opacity="1" d="M 82.5 171 L 280.5 171 Q 289.6 172.9 294 179.5 L 296 184 L 242.5 202 Q 232.2 205.7 225.5 213 L 82.5 213 Q 72.5 211 68 203.5 Q 63.2 198.3 65 186.5 Q 67.9 178.4 74.5 174 L 82.5 171 Z " /><path fill="rgb(144,164,174)" stroke="rgb(144,164,174)" stroke-width="0" opacity="1" d="M 85.5 256 L 191.5 256 Q 192.8 258.3 197.5 257 L 202 259.5 L 202 295.5 L 200.5 296 L 196.5 298 L 80.5 298 Q 73.1 295.9 69 290.5 Q 63.2 284.8 65 271.5 Q 67.6 264.1 73.5 260 L 79.5 257 Q 84.2 258.3 85.5 256 Z " /><path fill="rgb(235,238,241)" stroke="rgb(235,238,241)" stroke-width="0" opacity="0.6666666666666666" d="M 341.5 13 L 343.5 16 L 341.5 13 Z " /><path fill="rgb(235,238,241)" stroke="rgb(235,238,241)" stroke-width="0" opacity="0.6666666666666666" d="M 347.5 19 L 348.5 21 L 347.5 19 Z " /><path fill="rgb(235,238,241)" stroke="rgb(235,238,241)" stroke-width="0" opacity="0.6666666666666666" d="M 362.5 54 L 363 161.5 L 362 161.5 L 362.5 54 Z " /><path fill="rgb(235,238,241)" stroke="rgb(235,238,241)" stroke-width="0" opacity="0.6666666666666666" d="M 202.5 296 L 203 347.5 L 202 347.5 L 202.5 296 Z " /><path fill="rgb(235,238,241)" stroke="rgb(235,238,241)" stroke-width="0" opacity="0.6666666666666666" d="M 203.5 364 L 204 366.5 L 203 366.5 L 203.5 364 Z " /><path fill="rgb(139,203,142)" stroke="rgb(139,203,142)" stroke-width="0" opacity="1" d="M 449.5 291 L 450.5 293 L 449.5 291 Z " /><path fill="rgb(139,203,142)" stroke="rgb(139,203,142)" stroke-width="0" opacity="1" d="M 419.5 297 L 418.5 299 L 419.5 297 Z " /><path fill="rgb(139,203,142)" stroke="rgb(139,203,142)" stroke-width="0" opacity="1" d="M 416.5 301 L 415.5 303 L 416.5 301 Z " /><path fill="rgb(139,203,142)" stroke="rgb(139,203,142)" stroke-width="0" opacity="1" d="M 413.5 305 L 412.5 307 L 413.5 305 Z " /><path fill="rgb(139,203,142)" stroke="rgb(139,203,142)" stroke-width="0" opacity="1" d="M 410.5 309 L 409.5 311 L 410.5 309 Z " /><path fill="rgb(139,203,142)" stroke="rgb(139,203,142)" stroke-width="0" opacity="1" d="M 407.5 313 L 406.5 315 L 407.5 313 Z " /><path fill="rgb(139,203,142)" stroke="rgb(139,203,142)" stroke-width="0" opacity="1" d="M 404.5 317 L 403.5 319 L 404.5 317 Z " /><path fill="rgb(139,203,142)" stroke="rgb(139,203,142)" stroke-width="0" opacity="1" d="M 401.5 321 L 400.5 323 L 401.5 321 Z " /><path fill="rgb(139,203,142)" stroke="rgb(139,203,142)" stroke-width="0" opacity="1" d="M 398.5 325 L 397.5 327 L 398.5 325 Z " /><path fill="rgb(139,203,142)" stroke="rgb(139,203,142)" stroke-width="0" opacity="1" d="M 395.5 329 L 394.5 331 L 395.5 329 Z " /><path fill="rgb(139,203,142)" stroke="rgb(139,203,142)" stroke-width="0" opacity="1" d="M 328.5 330 L 333 330.5 L 328.5 331 L 328.5 330 Z " /><path fill="rgb(139,203,142)" stroke="rgb(139,203,142)" stroke-width="0" opacity="1" d="M 392.5 333 L 391.5 335 L 392.5 333 Z " /><path fill="rgb(139,203,142)" stroke="rgb(139,203,142)" stroke-width="0" opacity="1" d="M 344.5 335 L 372 361.5 L 370.5 362 L 344.5 335 Z " /><path fill="rgb(139,203,142)" stroke="rgb(139,203,142)" stroke-width="0" opacity="1" d="M 389.5 337 L 388.5 339 L 389.5 337 Z " /><path fill="rgb(139,203,142)" stroke="rgb(139,203,142)" stroke-width="0" opacity="1" d="M 386.5 341 L 385.5 343 L 386.5 341 Z " /><path fill="rgb(139,203,142)" stroke="rgb(139,203,142)" stroke-width="0" opacity="1" d="M 383.5 345 L 382.5 347 L 383.5 345 Z " /><path fill="rgb(139,203,142)" stroke="rgb(139,203,142)" stroke-width="0" opacity="1" d="M 380.5 349 L 379.5 351 L 380.5 349 Z " /><path fill="rgb(139,203,142)" stroke="rgb(139,203,142)" stroke-width="0" opacity="1" d="M 377.5 353 L 376.5 355 L 377.5 353 Z " /><path fill="rgb(139,203,142)" stroke="rgb(139,203,142)" stroke-width="0" opacity="1" d="M 374.5 357 L 373.5 359 L 374.5 357 Z " /><path fill="rgb(139,203,142)" stroke="rgb(139,203,142)" stroke-width="0" opacity="1" d="M 386.5 411 L 385.5 413 L 386.5 411 Z " /><path fill="rgb(146,165,175)" stroke="rgb(146,165,175)" stroke-width="0" opacity="1" d="M 64.5 105 L 65 107.5 L 64 107.5 L 64.5 105 Z " /><path fill="rgb(146,165,175)" stroke="rgb(146,165,175)" stroke-width="0" opacity="1" d="M 71.5 176 L 69.5 179 L 71.5 176 Z " /><path fill="rgb(146,165,175)" stroke="rgb(146,165,175)" stroke-width="0" opacity="1" d="M 69.5 205 L 71.5 208 L 69.5 205 Z " /><path fill="rgb(146,165,175)" stroke="rgb(146,165,175)" stroke-width="0" opacity="1" d="M 64.5 276 L 65 278.5 L 64 278.5 L 64.5 276 Z " /><path fill="rgb(193,217,201)" stroke="rgb(193,217,201)" stroke-width="0" opacity="0.996078431372549" d="M 69.5 92 L 68.5 94 L 69.5 92 Z " /><path fill="rgb(193,217,201)" stroke="rgb(193,217,201)" stroke-width="0" opacity="0.996078431372549" d="M 451.5 293 L 453.5 296 L 451.5 293 Z " /><path fill="rgb(193,217,201)" stroke="rgb(193,217,201)" stroke-width="0" opacity="0.996078431372549" d="M 458.5 307 L 459 311.5 L 458 311.5 L 458.5 307 Z " /><path fill="rgb(193,217,201)" stroke="rgb(193,217,201)" stroke-width="0" opacity="0.996078431372549" d="M 309.5 349 L 310 354.5 L 309 354.5 L 309.5 349 Z " /><path fill="rgb(193,217,201)" stroke="rgb(193,217,201)" stroke-width="0" opacity="0.996078431372549" d="M 389.5 408 L 387.5 411 L 389.5 408 Z " /><path fill="rgb(206,215,219)" stroke="rgb(206,215,219)" stroke-width="0" opacity="0.996078431372549" d="M 187.5 93 L 188.5 95 L 187.5 93 Z " /><path fill="rgb(206,215,219)" stroke="rgb(206,215,219)" stroke-width="0" opacity="0.996078431372549" d="M 83.5 170 L 279 170.5 L 83.5 171 L 83.5 170 Z " /><path fill="rgb(206,215,219)" stroke="rgb(206,215,219)" stroke-width="0" opacity="0.996078431372549" d="M 71.5 175 L 69.5 178 L 71.5 175 Z " /><path fill="rgb(206,215,219)" stroke="rgb(206,215,219)" stroke-width="0" opacity="0.996078431372549" d="M 69.5 206 L 71.5 209 L 69.5 206 Z " /><path fill="rgb(206,215,219)" stroke="rgb(206,215,219)" stroke-width="0" opacity="0.996078431372549" d="M 83.5 213 L 225 213.5 L 83.5 214 L 83.5 213 Z " /><path fill="rgb(169,175,180)" stroke="rgb(169,175,180)" stroke-width="0" opacity="0.08235294117647059" d="M 232.5 208 L 231.5 210 L 232.5 208 Z " /><path fill="rgb(169,175,180)" stroke="rgb(169,175,180)" stroke-width="0" opacity="0.08235294117647059" d="M 229.5 210 L 227.5 213 L 229.5 210 Z " /><path fill="rgb(75,175,79)" stroke="rgb(75,175,79)" stroke-width="0" opacity="0.8784313725490196" d="M 503.5 245 L 504.5 247 L 503.5 245 Z " /><path fill="rgb(75,175,79)" stroke="rgb(75,175,79)" stroke-width="0" opacity="0.8784313725490196" d="M 252.5 246 L 250.5 249 L 252.5 246 Z " /><path fill="rgb(75,175,79)" stroke="rgb(75,175,79)" stroke-width="0" opacity="0.8784313725490196" d="M 506.5 248 L 507.5 250 L 506.5 248 Z " /><path fill="rgb(75,175,79)" stroke="rgb(75,175,79)" stroke-width="0" opacity="0.8784313725490196" d="M 511.5 351 L 512 356.5 L 511 356.5 L 511.5 351 Z " /><path fill="rgb(75,175,79)" stroke="rgb(75,175,79)" stroke-width="0" opacity="0.8784313725490196" d="M 487.5 427 L 486.5 429 L 487.5 427 Z " /><path fill="rgb(75,175,79)" stroke="rgb(75,175,79)" stroke-width="0" opacity="0.8784313725490196" d="M 485.5 430 L 484.5 432 L 485.5 430 Z " /><path fill="rgb(75,175,79)" stroke="rgb(75,175,79)" stroke-width="0" opacity="0.8784313725490196" d="M 278.5 439 L 279.5 441 L 278.5 439 Z " /><path fill="rgb(75,175,79)" stroke="rgb(75,175,79)" stroke-width="0" opacity="0.8784313725490196" d="M 476.5 442 L 475.5 444 L 476.5 442 Z " /><path fill="rgb(75,175,79)" stroke="rgb(75,175,79)" stroke-width="0" opacity="0.8784313725490196" d="M 282.5 444 L 283.5 446 L 282.5 444 Z " /><path fill="rgb(75,175,79)" stroke="rgb(75,175,79)" stroke-width="0" opacity="0.8784313725490196" d="M 471.5 448 L 468.5 452 L 471.5 448 Z " /><path fill="rgb(75,175,79)" stroke="rgb(75,175,79)" stroke-width="0" opacity="0.8784313725490196" d="M 288.5 451 L 301.5 465 L 288.5 451 Z " /><path fill="rgb(75,175,79)" stroke="rgb(75,175,79)" stroke-width="0" opacity="0.8784313725490196" d="M 455.5 464 L 451.5 469 L 455.5 464 Z " /><path fill="rgb(75,175,79)" stroke="rgb(75,175,79)" stroke-width="0" opacity="0.8784313725490196" d="M 308.5 470 L 309.5 472 L 308.5 470 Z " /><path fill="rgb(75,175,79)" stroke="rgb(75,175,79)" stroke-width="0" opacity="0.8784313725490196" d="M 446.5 472 L 445.5 474 L 446.5 472 Z " /><path fill="rgb(75,175,79)" stroke="rgb(75,175,79)" stroke-width="0" opacity="0.8784313725490196" d="M 314.5 475 L 315.5 477 L 314.5 475 Z " /><path fill="rgb(75,175,79)" stroke="rgb(75,175,79)" stroke-width="0" opacity="0.8784313725490196" d="M 441.5 476 L 440.5 478 L 441.5 476 Z " /><path fill="rgb(75,175,79)" stroke="rgb(75,175,79)" stroke-width="0" opacity="0.8784313725490196" d="M 326.5 484 L 327.5 486 L 326.5 484 Z " /><path fill="rgb(75,175,79)" stroke="rgb(75,175,79)" stroke-width="0" opacity="0.8784313725490196" d="M 426.5 487 L 425.5 489 L 426.5 487 Z " /><path fill="rgb(75,175,79)" stroke="rgb(75,175,79)" stroke-width="0" opacity="0.8784313725490196" d="M 375.5 511 L 378 511.5 L 375.5 512 L 375.5 511 Z " /><path fill="rgb(76,175,80)" stroke="rgb(76,175,80)" stroke-width="0" opacity="1" d="M 375.5 203 L 382.5 203 L 427.5 218 L 430.5 220 L 497.5 242 L 506 247 L 510 253.5 L 512 261.5 L 512 350.5 L 511 351.5 L 511 364.5 L 510 365.5 L 509 376.5 L 501 402.5 Q 484.4 438.9 456.5 464 Q 437.9 481.4 415.5 495 L 387.5 510 L 378.5 512 Q 377.3 509.7 372.5 511 L 357.5 504 L 329.5 487 Q 304 469.5 284 446.5 Q 270.1 430.4 260 410.5 L 254 396.5 L 249 379.5 L 247 369.5 L 247 362.5 L 246 361.5 L 246 257.5 Q 248.2 249.1 254.5 245 L 262.5 241 L 375.5 203 Z M 433 288 L 426 291 L 418 299 L 372 361 L 345 335 L 338 331 L 333 330 L 329 330 L 320 333 Q 312 338 309 348 Q 308 358 312 364 L 362 413 L 369 416 Q 380 418 386 413 L 391 408 L 454 324 L 459 314 L 459 306 L 455 297 Q 449 287 433 288 Z " /><path fill="rgb(75,173,81)" stroke="rgb(75,173,81)" stroke-width="0" opacity="0.10196078431372549" d="M 375.5 202 L 378 202.5 L 375.5 203 L 375.5 202 Z " /><path fill="rgb(75,173,81)" stroke="rgb(75,173,81)" stroke-width="0" opacity="0.10196078431372549" d="M 379.5 202 L 383 202.5 L 379.5 203 L 379.5 202 Z " /><path fill="rgb(75,173,81)" stroke="rgb(75,173,81)" stroke-width="0" opacity="0.10196078431372549" d="M 503.5 244 L 508.5 250 L 503.5 244 Z " /><path fill="rgb(75,173,81)" stroke="rgb(75,173,81)" stroke-width="0" opacity="0.10196078431372549" d="M 252.5 245 L 250.5 248 L 252.5 245 Z " /><path fill="rgb(75,173,81)" stroke="rgb(75,173,81)" stroke-width="0" opacity="0.10196078431372549" d="M 245.5 358 L 246 361.5 L 245 361.5 L 245.5 358 Z " /><path fill="rgb(75,173,81)" stroke="rgb(75,173,81)" stroke-width="0" opacity="0.10196078431372549" d="M 511.5 362 L 512 364.5 L 511 364.5 L 511.5 362 Z " /><path fill="rgb(75,173,81)" stroke="rgb(75,173,81)" stroke-width="0" opacity="0.10196078431372549" d="M 263.5 418 L 264.5 420 L 263.5 418 Z " /><path fill="rgb(75,173,81)" stroke="rgb(75,173,81)" stroke-width="0" opacity="0.10196078431372549" d="M 266.5 423 L 267.5 425 L 266.5 423 Z " /><path fill="rgb(75,173,81)" stroke="rgb(75,173,81)" stroke-width="0" opacity="0.10196078431372549" d="M 272.5 432 L 273.5 434 L 272.5 432 Z " /><path fill="rgb(75,173,81)" stroke="rgb(75,173,81)" stroke-width="0" opacity="0.10196078431372549" d="M 483.5 434 L 482.5 436 L 483.5 434 Z " /><path fill="rgb(75,173,81)" stroke="rgb(75,173,81)" stroke-width="0" opacity="0.10196078431372549" d="M 274.5 435 L 275.5 437 L 274.5 435 Z " /><path fill="rgb(75,173,81)" stroke="rgb(75,173,81)" stroke-width="0" opacity="0.10196078431372549" d="M 480.5 438 L 479.5 440 L 480.5 438 Z " /><path fill="rgb(75,173,81)" stroke="rgb(75,173,81)" stroke-width="0" opacity="0.10196078431372549" d="M 277.5 439 L 279.5 442 L 277.5 439 Z " /><path fill="rgb(75,173,81)" stroke="rgb(75,173,81)" stroke-width="0" opacity="0.10196078431372549" d="M 477.5 442 L 475.5 445 L 477.5 442 Z " /><path fill="rgb(75,173,81)" stroke="rgb(75,173,81)" stroke-width="0" opacity="0.10196078431372549" d="M 281.5 444 L 284.5 448 L 281.5 444 Z " /><path fill="rgb(75,173,81)" stroke="rgb(75,173,81)" stroke-width="0" opacity="0.10196078431372549" d="M 472.5 448 L 466.5 455 L 472.5 448 Z " /><path fill="rgb(75,173,81)" stroke="rgb(75,173,81)" stroke-width="0" opacity="0.10196078431372549" d="M 287.5 451 L 302.5 467 L 287.5 451 Z " /><path fill="rgb(75,173,81)" stroke="rgb(75,173,81)" stroke-width="0" opacity="0.10196078431372549" d="M 457.5 463 L 451.5 470 L 457.5 463 Z " /><path fill="rgb(75,173,81)" stroke="rgb(75,173,81)" stroke-width="0" opacity="0.10196078431372549" d="M 306.5 469 L 309.5 473 L 306.5 469 Z " /><path fill="rgb(75,173,81)" stroke="rgb(75,173,81)" stroke-width="0" opacity="0.10196078431372549" d="M 448.5 471 L 445.5 475 L 448.5 471 Z " /><path fill="rgb(75,173,81)" stroke="rgb(75,173,81)" stroke-width="0" opacity="0.10196078431372549" d="M 313.5 475 L 314.5 477 L 313.5 475 Z " /><path fill="rgb(75,173,81)" stroke="rgb(75,173,81)" stroke-width="0" opacity="0.10196078431372549" d="M 442.5 476 L 440.5 479 L 442.5 476 Z " /><path fill="rgb(75,173,81)" stroke="rgb(75,173,81)" stroke-width="0" opacity="0.10196078431372549" d="M 318.5 479 L 319.5 481 L 318.5 479 Z " /><path fill="rgb(75,173,81)" stroke="rgb(75,173,81)" stroke-width="0" opacity="0.10196078431372549" d="M 437.5 480 L 436.5 482 L 437.5 480 Z " /><path fill="rgb(75,173,81)" stroke="rgb(75,173,81)" stroke-width="0" opacity="0.10196078431372549" d="M 322.5 482 L 323.5 484 L 322.5 482 Z " /><path fill="rgb(75,173,81)" stroke="rgb(75,173,81)" stroke-width="0" opacity="0.10196078431372549" d="M 433.5 483 L 432.5 485 L 433.5 483 Z " /><path fill="rgb(75,173,81)" stroke="rgb(75,173,81)" stroke-width="0" opacity="0.10196078431372549" d="M 325.5 484 L 326.5 486 L 325.5 484 Z " /><path fill="rgb(75,173,81)" stroke="rgb(75,173,81)" stroke-width="0" opacity="0.10196078431372549" d="M 430.5 485 L 429.5 487 L 430.5 485 Z " /><path fill="rgb(75,173,81)" stroke="rgb(75,173,81)" stroke-width="0" opacity="0.10196078431372549" d="M 332.5 489 L 333.5 491 L 332.5 489 Z " /><path fill="rgb(75,173,81)" stroke="rgb(75,173,81)" stroke-width="0" opacity="0.10196078431372549" d="M 418.5 493 L 417.5 495 L 418.5 493 Z " /><path fill="rgb(75,173,81)" stroke="rgb(75,173,81)" stroke-width="0" opacity="0.10196078431372549" d="M 340.5 494 L 341.5 496 L 340.5 494 Z " /><path fill="rgb(75,173,81)" stroke="rgb(75,173,81)" stroke-width="0" opacity="0.10196078431372549" d="M 345.5 497 L 346.5 499 L 345.5 497 Z " /><path fill="rgb(152,170,180)" stroke="rgb(152,170,180)" stroke-width="0" opacity="0.996078431372549" d="M 69.5 120 L 71.5 123 L 69.5 120 Z " /><path fill="rgb(152,170,180)" stroke="rgb(152,170,180)" stroke-width="0" opacity="0.996078431372549" d="M 186.5 120 L 184.5 123 L 186.5 120 Z " /><path fill="rgb(152,170,180)" stroke="rgb(152,170,180)" stroke-width="0" opacity="0.996078431372549" d="M 291.5 176 L 292.5 178 L 291.5 176 Z " /><path fill="rgb(152,170,180)" stroke="rgb(152,170,180)" stroke-width="0" opacity="0.996078431372549" d="M 228.5 210 L 227.5 212 L 228.5 210 Z " /><path fill="rgb(152,170,180)" stroke="rgb(152,170,180)" stroke-width="0" opacity="0.996078431372549" d="M 71.5 261 L 69.5 264 L 71.5 261 Z " /><path fill="rgb(172,188,194)" stroke="rgb(172,188,194)" stroke-width="0" opacity="0.9647058823529412" d="M 83.5 85 L 173 85.5 L 83.5 86 L 83.5 85 Z " /><path fill="rgb(172,188,194)" stroke="rgb(172,188,194)" stroke-width="0" opacity="0.9647058823529412" d="M 185.5 91 L 186.5 93 L 185.5 91 Z " /><path fill="rgb(172,188,194)" stroke="rgb(172,188,194)" stroke-width="0" opacity="0.9647058823529412" d="M 240.5 203 L 242 203.5 L 239.5 205 L 240.5 203 Z " /><path fill="rgb(172,188,194)" stroke="rgb(172,188,194)" stroke-width="0" opacity="0.9647058823529412" d="M 202.5 260 L 203 295.5 L 202 295.5 L 202.5 260 Z " /><path fill="rgb(172,188,194)" stroke="rgb(172,188,194)" stroke-width="0" opacity="0.9647058823529412" d="M 84.5 298 L 193 298.5 L 84.5 299 L 84.5 298 Z " /><path fill="rgb(255,255,255)" stroke="rgb(255,255,255)" stroke-width="0" opacity="1" d="M 436.5 288 L 443.5 289 L 454 296.5 Q 459.5 301.5 458 313.5 L 453 323.5 L 386.5 411 L 381.5 414 L 373.5 416 Q 372.2 413.8 367.5 415 L 361.5 412 L 313 363.5 Q 308.6 358.3 310 347.5 Q 312.2 339.2 318.5 335 Q 323.3 330.3 333.5 331 L 345.5 337 L 371.5 363 L 420 297.5 L 425.5 292 L 436.5 288 Z " /><path fill="rgb(75,175,79)" stroke="rgb(75,175,79)" stroke-width="0" opacity="0.5019607843137255" d="M 254.5 244 L 253.5 246 L 254.5 244 Z " /><path fill="rgb(75,175,79)" stroke="rgb(75,175,79)" stroke-width="0" opacity="0.5019607843137255" d="M 245.5 258 L 246 357.5 L 245 357.5 L 245.5 258 Z " /><path fill="rgb(75,175,79)" stroke="rgb(75,175,79)" stroke-width="0" opacity="0.5019607843137255" d="M 511.5 357 L 512 361.5 L 511 361.5 L 511.5 357 Z " /><path fill="rgb(75,175,79)" stroke="rgb(75,175,79)" stroke-width="0" opacity="0.5019607843137255" d="M 246.5 364 L 247 367.5 L 246 367.5 L 246.5 364 Z " /><path fill="rgb(75,175,79)" stroke="rgb(75,175,79)" stroke-width="0" opacity="0.5019607843137255" d="M 510.5 367 L 511 369.5 L 510 369.5 L 510.5 367 Z " /><path fill="rgb(75,175,79)" stroke="rgb(75,175,79)" stroke-width="0" opacity="0.5019607843137255" d="M 269.5 427 L 270.5 429 L 269.5 427 Z " /><path fill="rgb(75,175,79)" stroke="rgb(75,175,79)" stroke-width="0" opacity="0.5019607843137255" d="M 271.5 430 L 272.5 432 L 271.5 430 Z " /><path fill="rgb(75,175,79)" stroke="rgb(75,175,79)" stroke-width="0" opacity="0.5019607843137255" d="M 484.5 432 L 483.5 434 L 484.5 432 Z " /><path fill="rgb(75,175,79)" stroke="rgb(75,175,79)" stroke-width="0" opacity="0.5019607843137255" d="M 481.5 436 L 480.5 438 L 481.5 436 Z " /><path fill="rgb(75,175,79)" stroke="rgb(75,175,79)" stroke-width="0" opacity="0.5019607843137255" d="M 276.5 437 L 277.5 439 L 276.5 437 Z " /><path fill="rgb(75,175,79)" stroke="rgb(75,175,79)" stroke-width="0" opacity="0.5019607843137255" d="M 478.5 440 L 477.5 442 L 478.5 440 Z " /><path fill="rgb(75,175,79)" stroke="rgb(75,175,79)" stroke-width="0" opacity="0.5019607843137255" d="M 280.5 442 L 281.5 444 L 280.5 442 Z " /><path fill="rgb(75,175,79)" stroke="rgb(75,175,79)" stroke-width="0" opacity="0.5019607843137255" d="M 474.5 445 L 472.5 448 L 474.5 445 Z " /><path fill="rgb(75,175,79)" stroke="rgb(75,175,79)" stroke-width="0" opacity="0.5019607843137255" d="M 285.5 448 L 287.5 451 L 285.5 448 Z " /><path fill="rgb(75,175,79)" stroke="rgb(75,175,79)" stroke-width="0" opacity="0.5019607843137255" d="M 465.5 455 L 458.5 463 L 465.5 455 Z " /><path fill="rgb(75,175,79)" stroke="rgb(75,175,79)" stroke-width="0" opacity="0.5019607843137255" d="M 302.5 465 L 305.5 469 L 302.5 465 Z " /><path fill="rgb(75,175,79)" stroke="rgb(75,175,79)" stroke-width="0" opacity="0.5019607843137255" d="M 450.5 469 L 449.5 471 L 450.5 469 Z " /><path fill="rgb(75,175,79)" stroke="rgb(75,175,79)" stroke-width="0" opacity="0.5019607843137255" d="M 310.5 472 L 312.5 475 L 310.5 472 Z " /><path fill="rgb(75,175,79)" stroke="rgb(75,175,79)" stroke-width="0" opacity="0.5019607843137255" d="M 444.5 474 L 443.5 476 L 444.5 474 Z " /><path fill="rgb(75,175,79)" stroke="rgb(75,175,79)" stroke-width="0" opacity="0.5019607843137255" d="M 316.5 477 L 317.5 479 L 316.5 477 Z " /><path fill="rgb(75,175,79)" stroke="rgb(75,175,79)" stroke-width="0" opacity="0.5019607843137255" d="M 439.5 478 L 438.5 480 L 439.5 478 Z " /><path fill="rgb(75,175,79)" stroke="rgb(75,175,79)" stroke-width="0" opacity="0.5019607843137255" d="M 320.5 480 L 321.5 482 L 320.5 480 Z " /><path fill="rgb(75,175,79)" stroke="rgb(75,175,79)" stroke-width="0" opacity="0.5019607843137255" d="M 435.5 481 L 434.5 483 L 435.5 481 Z " /><path fill="rgb(75,175,79)" stroke="rgb(75,175,79)" stroke-width="0" opacity="0.5019607843137255" d="M 428.5 486 L 427.5 488 L 428.5 486 Z " /></svg>